<svg xmlns="http://www.w3.org/2000/svg" viewBox="0 0 328.51 328.29"><g id="Слой_2" data-name="Слой 2"><g id="Слой_1-2" data-name="Слой 1"><path d="M16.68,328.29c-1.85-.78-3.79-1.43-5.55-2.38a21.19,21.19,0,0,1-6-32.44c1-1.14,2.05-2.18,3.11-3.24Q69.82,228.64,131.4,167.06c.83-.83,1.78-1.53,2.92-2.5-1.13-1.18-2-2.09-2.83-3Q69.35,99.44,7.21,37.28C-2.37,27.7-2.39,14,7.08,5.48a21.17,21.17,0,0,1,28.13-.27c1.29,1.11,2.47,2.36,3.68,3.57Q100.26,70.13,161.6,131.5c.82.81,1.67,1.6,2.66,2.54,1-1,2-1.83,2.84-2.72Q229.25,69.16,291.4,7C303-4.55,321.27-1.17,327,13.51c.54,1.37,1,2.78,1.48,4.17v7.06c-1.57,6.5-5.75,11.2-10.36,15.79Q257.52,101,197,161.56a19.46,19.46,0,0,1-3.54,2.19c1.88,1.7,2.8,2.45,3.62,3.27q60.66,60.66,121.34,121.28c4.54,4.53,8.57,9.2,10.07,15.61V311c-2.44,8.78-7.86,14.69-16.68,17.32H302.2c-6.15-2.08-10.59-6.47-15.06-10.94q-60-60.17-120.12-120.21c-.88-.88-1.8-1.72-3.2-3a36,36,0,0,1-2.57,3.27Q101,257.7,40.69,318c-4.25,4.27-8.56,8.27-14.38,10.25Z"/></g></g></svg>