<svg xmlns="http://www.w3.org/2000/svg" viewBox="0 0 383.22 379.63"><g id="Слой_2" data-name="Слой 2"><g id="Слой_1-2" data-name="Слой 1"><path d="M0,339.78C2.23,328.13,9.73,320,17.79,312Q77.4,252.67,136.68,193a25.56,25.56,0,0,1,3.89-2.61c-1.82-1.9-2.73-2.9-3.68-3.85Q74.72,124.29,12.54,62A36.24,36.24,0,0,1,59,6.64,41.55,41.55,0,0,1,64.3,11.3Q125.89,72.61,187.43,134c1.23,1.23,2.29,2.64,3.7,4.3,1.46-1.39,2.53-2.37,3.55-3.39Q255.94,73.51,317.2,12.14C337.33-8,370.37-.19,378.2,26.65c3.95,13.5,1.11,25.76-9,35.88q-61.35,61.56-122.77,123c-1.06,1-2.29,1.93-3.84,3.24,1.67,1.69,2.93,3,4.21,4.27Q309,255,371.3,317c7.84,7.79,12.11,17,11.91,28.09a35.08,35.08,0,0,1-34.48,34.45c-12.79.3-23.38-3.93-32.52-13.16q-60.61-61.22-121.62-122a29.32,29.32,0,0,1-2.68-3.63l-1.62-.29a21.17,21.17,0,0,1-2.46,3.8Q126,306.33,64,368.34c-12.66,12.68-34.27,15-49.31,5.33C7,368.71,3,361.31.81,352.69c-.21-.82-.54-1.61-.81-2.41Z"/></g></g></svg>