<?xml version="1.0" standalone="no"?>
<!DOCTYPE svg PUBLIC "-//W3C//DTD SVG 20010904//EN"
 "http://www.w3.org/TR/2001/REC-SVG-20010904/DTD/svg10.dtd">
<svg version="1.0" xmlns="http://www.w3.org/2000/svg"
 width="512.000000pt" height="512.000000pt" viewBox="0 0 512.000000 512.000000"
 preserveAspectRatio="xMidYMid meet">

<g transform="translate(0.000000,512.000000) scale(0.100000,-0.100000)"
fill="#000000" stroke="none">
<path d="M885 4331 c-89 -25 -158 -67 -223 -135 -76 -79 -107 -134 -132 -231
-19 -74 -20 -111 -20 -630 0 -350 4 -573 11 -611 14 -76 67 -186 119 -246 54
-62 147 -123 229 -150 60 -20 92 -22 369 -26 l302 -4 0 -376 0 -377 378 377
377 377 305 4 c280 3 310 5 371 25 82 27 175 88 229 150 52 60 105 170 119
246 7 38 11 259 11 605 0 592 -3 625 -56 736 -35 76 -138 184 -212 223 -120
64 -79 62 -1147 61 -887 0 -975 -2 -1030 -18z"/>
<path d="M3840 3041 c0 -313 -8 -401 -47 -526 -107 -342 -378 -600 -728 -691
-89 -23 -124 -27 -325 -31 l-225 -5 -222 -221 c-123 -122 -223 -225 -223 -228
0 -4 28 -17 63 -30 59 -22 78 -23 372 -26 l310 -4 383 -382 382 -382 0 382 0
381 313 4 c291 4 316 6 371 26 169 63 295 208 332 381 20 97 20 1136 -1 1234
-40 192 -201 352 -394 393 -39 8 -126 14 -213 14 l-148 0 0 -289z"/>
</g>
</svg>
